<svg xmlns="http://www.w3.org/2000/svg" version="1.1" xmlns:xlink="http://www.w3.org/1999/xlink" xmlns:svgjs="http://svgjs.com/svgjs" width="1080" height="1080"><svg xmlns="http://www.w3.org/2000/svg" xmlns:xlink="http://www.w3.org/1999/xlink" version="1.1" xml:space="preserve" viewBox="0 0 1080 1080">
<g transform="matrix(64 0 0 64 540 540)" id="SvgjsG1001">
<path style="stroke: rgb(0,0,0); stroke-width: 0; stroke-dasharray: none; stroke-linecap: butt; stroke-dashoffset: 0; stroke-linejoin: miter; stroke-miterlimit: 4; fill: rgb(135,135,135); fill-rule: nonzero; opacity: 1;" vector-effect="non-scaling-stroke" transform=" translate(-8, -8)" d="M 2.037 3.225 C 2.012451998460162 3.1525263665213843 1.9999528721308748 3.076518165870312 2 3 C 2 1.895 4.686 1 8 1 C 11.314 1 14 1.895 14 3 C 14.000047127869125 3.076518165870312 13.987548001539837 3.1525263665213843 13.963 3.225 L 12.279 13.328999999999999 C 12.118107329407815 14.29374793595658 11.283071909537542 15.000609226029137 10.305 15 L 5.694 15 C 4.7163061853681665 15.000120173894183 3.881830626336245 14.293374781526042 3.721 13.329 z M 11.927 2.535 C 10.966 2.214 9.578 2 8 2 C 6.42 2 5.032 2.215 4.074 2.534 C 3.597 2.694 3.279 2.8609999999999998 3.0989999999999998 3 C 3.279 3.14 3.5969999999999995 3.307 4.074 3.466 C 5.032 3.786 6.42 4 8 4 C 9.58 4 10.967 3.785 11.926 3.466 C 12.403 3.306 12.721 3.1390000000000002 12.901 3 C 12.721 2.86 12.403 2.693 11.926 2.534 z" stroke-linecap="round"></path>
</g>
<g transform="matrix(32 0 0 32 540 600)" id="SvgjsG1000">
<path style="stroke: rgb(0,0,0); stroke-width: 0; stroke-dasharray: none; stroke-linecap: butt; stroke-dashoffset: 0; stroke-linejoin: miter; stroke-miterlimit: 4; fill: rgb(255,0,0); fill-rule: nonzero; opacity: 1;" vector-effect="non-scaling-stroke" transform=" translate(-8, -8)" d="M 8 16 C 11.314 16 14 14 14 10.5 C 14 9 13.5 6.5 11.5 4.5 C 11.75 6 10.25 6.5 10.25 6.5 C 11 4 9 0.5 6 0 C 6.357 2 6.5 4 4 6 C 2.75 7 2 8.729 2 10.5 C 2 14 4.686 16 8 16 M 8 15 C 6.343 15 5 14 5 12.25 C 5 11.5 5.25 10.25 6.25 9.25 C 6.125 10 7 10.5 7 10.5 C 6.625 9.25 7.5 7.25 9 7 C 8.821 8 8.75 9 10 10 C 10.625 10.5 11 11.364 11 12.25 C 11 14 9.657 15 8 15" stroke-linecap="round"></path>
</g>
</svg><style>@media (prefers-color-scheme: light) { :root { filter: none; } }
@media (prefers-color-scheme: dark) { :root { filter: none; } }
</style></svg>